<?xml version="1.0" encoding="utf-8"?>
<!-- Generator: Adobe Illustrator 23.0.2, SVG Export Plug-In . SVG Version: 6.00 Build 0)  -->
<svg version="1.1" xmlns="http://www.w3.org/2000/svg" xmlns:xlink="http://www.w3.org/1999/xlink" x="0px" y="0px"
	 viewBox="0 0 44.61 31.43" style="enable-background:new 0 0 44.61 31.43;" xml:space="preserve">
<style type="text/css">
	.st0{fill:none;stroke:#6161F7;stroke-width:3;stroke-miterlimit:10;}
	.st1{fill:none;stroke:#6161F7;stroke-width:3;stroke-miterlimit:10;stroke-dasharray:7.9336,4.4076;}
	.st2{fill:none;stroke:#E27A61;stroke-width:3;stroke-miterlimit:10;}
	.st3{fill:none;stroke:#E27A61;stroke-width:3;stroke-miterlimit:10;stroke-dasharray:7.9336,4.4076;}
	.st4{fill:#151226;}
	.st5{fill:#71E5FF;}
</style>
<g id="圖層_2">
	<g>
		<g>
			<path class="st0" d="M40.64,16.06c0,1.57-0.17,3.06-0.61,4.44"/>
			<path class="st1" d="M37.74,24.22c-2.58,2.51-7.27,4.09-15.44,4.09c-9.81,0-14.61-2.32-16.78-5.81"/>
			<path class="st0" d="M4.6,20.5c-0.46-1.38-0.63-2.87-0.63-4.44"/>
		</g>
	</g>
	<g>
		<g>
			<path class="st2" d="M3.97,16.06c0-1.57,0.17-3.06,0.61-4.44"/>
			<path class="st3" d="M6.87,7.91c2.58-2.51,7.27-4.09,15.44-4.09c9.81,0,14.61,2.32,16.78,5.81"/>
			<path class="st2" d="M40.01,11.63c0.46,1.38,0.63,2.87,0.63,4.44"/>
		</g>
	</g>
</g>
<g id="圖層_1">
</g>
</svg>
