<?xml version="1.0" encoding="utf-8"?>
<!-- Generator: Adobe Illustrator 16.0.0, SVG Export Plug-In . SVG Version: 6.00 Build 0)  -->
<!DOCTYPE svg PUBLIC "-//W3C//DTD SVG 1.1//EN" "http://www.w3.org/Graphics/SVG/1.1/DTD/svg11.dtd">
<svg version="1.1" id="圖層_1" xmlns="http://www.w3.org/2000/svg" xmlns:xlink="http://www.w3.org/1999/xlink" x="0px" y="0px"
	 width="420.594px" height="64.194px" viewBox="0 0 420.594 64.194" enable-background="new 0 0 420.594 64.194"
	 xml:space="preserve">
<g>
	<defs>
		<rect id="SVGID_1_" y="0" width="420.594" height="64.194"/>
	</defs>
	<clipPath id="SVGID_2_">
		<use xlink:href="#SVGID_1_"  overflow="visible"/>
	</clipPath>
	<path clip-path="url(#SVGID_2_)" fill="none" stroke="#5555A5" stroke-width="3" stroke-miterlimit="10" d="M396.184,39.751
		c0,1.028-0.072,2.027-0.248,2.982"/>
	
		<path clip-path="url(#SVGID_2_)" fill="none" stroke="#E2803D" stroke-width="5" stroke-miterlimit="10" stroke-dasharray="10,6" d="
		M394.479,46.473c-2.214,3.327-6.999,5.523-16.632,5.523c-11.16,0-15.849-3.009-17.529-7.318"/>
	<path clip-path="url(#SVGID_2_)" fill="none" stroke="#5555A5" stroke-width="3" stroke-miterlimit="10" d="M359.769,42.733
		c-0.183-0.954-0.257-1.953-0.257-2.982"/>
	<polygon clip-path="url(#SVGID_2_)" fill="#71E5FF" points="25.342,42.766 25.342,64.148 0.931,64.148 0.931,1.537 25.342,1.537 
		25.342,22.92 62.005,22.92 62.005,1.537 86.462,1.537 86.462,64.148 62.005,64.148 62.005,42.766 	"/>
	<rect x="100.679" y="1.539" clip-path="url(#SVGID_2_)" fill="#71E5FF" width="24.411" height="62.61"/>
	<polygon clip-path="url(#SVGID_2_)" fill="#71E5FF" points="199.117,1.538 223.574,1.538 223.574,64.147 196.089,64.147 
		162.455,25.902 162.455,64.147 138.044,64.147 138.044,1.538 171.632,1.538 199.117,34.706 	"/>
	<polygon clip-path="url(#SVGID_2_)" fill="#71E5FF" points="262.201,42.766 262.201,64.148 237.791,64.148 237.791,1.537 
		262.201,1.537 262.201,22.92 272.87,22.92 295.836,1.537 327.887,1.537 295.417,32.844 327.887,64.148 295.836,64.148 
		272.87,42.766 	"/>
	<path clip-path="url(#SVGID_2_)" fill="#71E5FF" d="M420.481,64.194c0.069-0.979,0.112-27.381,0.112-29.068V30.56
		C420.594,6.895,401.447,0,377.875,0c-23.571,0.047-42.858,6.848-42.765,30.56v4.566c-0.003,0.752,0.05,29.068,0.05,29.068
		s16.05-0.113,24.359,0c0-1.507-0.021-28.997,0.001-30.606v-1.537c-0.141-10.202,8.339-12.066,18.354-12.206
		c9.97,0.14,18.448,2.004,18.309,12.206v32.143"/>
	<rect x="358.351" y="32.097" clip-path="url(#SVGID_2_)" fill="#71E5FF" width="39" height="7.653"/>
</g>
</svg>
