<svg width="81" height="81" viewBox="0 0 81 81" fill="none" xmlns="http://www.w3.org/2000/svg">
<g clip-path="url(#clip0_19_10)">
<path d="M81 0H0V81H81V0Z" fill="#330000"/>
<path d="M54.5012 27.6363C55.327 28.4229 56.428 28.8674 57.5634 28.8332C58.7333 28.9016 59.9031 28.457 60.6945 27.6363C61.5202 26.7814 61.9331 25.653 61.8987 24.4903C61.9331 23.3618 61.5202 22.2676 60.7633 21.4469C60.0063 20.6604 58.9741 20.25 57.6322 20.25C56.4968 20.25 55.3958 20.6604 54.57 21.4469C53.7442 22.2334 53.2969 23.3276 53.3314 24.4903C53.2969 25.653 53.7098 26.7814 54.5012 27.6363Z" fill="#FF9A00"/>
<path d="M53.7098 32.1844V58.5154C53.7098 58.8573 53.8819 59.0625 54.2259 59.0625H60.9697C61.2794 59.0625 61.417 58.8915 61.417 58.5154V32.1844C61.417 31.8767 61.2794 31.7057 60.9697 31.7057H54.1571C53.8475 31.7057 53.7098 31.8425 53.7098 32.1844Z" fill="#FF9A00"/>
<path fill-rule="evenodd" clip-rule="evenodd" d="M26.1846 50.3765H38.9841L41.8054 58.5151C41.8742 58.7545 42.1151 58.9255 42.3559 58.8913H49.547C49.8911 58.8913 49.9943 58.7203 49.8911 58.3441L37.3325 23.1222C37.2981 22.9512 37.1605 22.8487 36.8852 22.8487H27.9738C27.8018 22.8829 27.6641 23.0538 27.6985 23.2248C27.6985 23.9771 27.6297 24.7294 27.4921 25.4476C27.3946 25.7383 27.3143 26.0119 27.2391 26.2683C27.2082 26.3738 27.1781 26.4763 27.148 26.576L16.0689 58.2758C15.9657 58.6861 16.0689 58.8913 16.4474 58.8913H22.916C23.2256 58.9255 23.5009 58.7203 23.5697 58.4125L26.1846 50.3765ZM36.9196 43.4347H28.1802C28.6963 41.9984 29.2124 40.3912 29.6941 38.6472C30.035 37.5887 30.3626 36.5301 30.6852 35.4878C30.8837 34.8465 31.0803 34.2114 31.2769 33.5862C31.7586 32.1158 32.137 30.6454 32.4467 29.1749H32.5155C32.6498 29.6324 32.784 30.1112 32.9243 30.6111C33.0356 31.0081 33.1507 31.4185 33.2725 31.8422C33.5477 32.8339 33.8574 33.8256 34.2015 34.8857C34.3735 35.4157 34.5369 35.9372 34.7004 36.4587C34.8638 36.9802 35.0272 37.5017 35.1993 38.0317C35.5089 39.0576 35.8186 40.0493 36.1283 40.9726C36.4379 41.8617 36.7132 42.7166 36.9196 43.4347Z" fill="#FF9A00"/>
</g>
<rect x="0.5" y="0.5" width="80" height="80" stroke="white"/>
<defs>
<clipPath id="clip0_19_10">
<rect width="81" height="81" fill="white"/>
</clipPath>
</defs>
</svg>
