<svg width="81" height="81" viewBox="0 0 81 81" fill="none" xmlns="http://www.w3.org/2000/svg">
<g clip-path="url(#clip0_19_22)">
<rect width="81" height="81" fill="#001E36"/>
<path d="M81 0H0V81H81V0Z" fill="#001E36"/>
<path fill-rule="evenodd" clip-rule="evenodd" d="M17.7188 22.5219V57.8936C17.7188 58.203 17.8524 58.3405 18.1198 58.3405H24.6034C24.8374 58.3061 25.0045 58.0999 24.971 57.8592V46.8249C25.606 46.8249 26.0739 46.8249 26.4081 46.8593C26.7423 46.8937 27.2771 46.8937 28.0792 46.8937C30.8197 46.8937 33.3262 46.5843 35.5988 45.7249C37.7712 44.8999 39.6427 43.4562 40.9796 41.5312C42.3164 39.6062 42.9848 37.1656 42.9848 34.2093C42.9848 32.6625 42.7174 31.1843 42.2161 29.7406C41.6814 28.2625 40.8459 26.9219 39.7764 25.8219C38.5064 24.55 36.9691 23.5875 35.298 23.0031C33.4265 22.2812 31.1539 21.9375 28.4134 21.9375C27.4108 21.9375 26.4081 21.9375 25.3721 21.9719C24.8719 21.9885 24.3873 21.9971 23.9183 22.0054C23.4158 22.0143 22.9312 22.0228 22.4645 22.0406C22.0268 22.0573 21.6049 22.0659 21.1949 22.0742C20.7595 22.0831 20.3376 22.0917 19.9245 22.1094C19.1559 22.1437 18.6211 22.1437 18.053 22.1437C17.819 22.1437 17.7188 22.2812 17.7188 22.5219ZM25.0045 40.3281V28.7781C25.2384 28.7437 25.7063 28.7094 26.3747 28.7437C27.0097 28.7094 27.7784 28.7093 28.6473 28.7093C30.0176 28.675 31.3544 28.8812 32.591 29.3968C33.5602 29.775 34.3623 30.4625 34.9304 31.3562C35.4651 32.2843 35.7325 33.35 35.6991 34.4156C35.6991 35.9281 35.3649 37.0968 34.6631 37.9562C33.9278 38.8156 32.992 39.4687 31.9226 39.7781C30.686 40.1906 29.3826 40.3968 28.0792 40.3968H26.3079C25.9356 40.3968 25.5345 40.3672 25.1047 40.3354C25.0714 40.333 25.038 40.3305 25.0045 40.3281Z" fill="#31A8FF"/>
<path d="M60.6309 37.0626C61.7672 37.3032 62.8366 37.6813 63.8393 38.2313C63.9729 38.3 64.14 38.3 64.4408 38.2313C64.5411 38.1625 64.6079 38.025 64.6079 37.8875V32.2844C64.6079 32.1469 64.5745 32.0094 64.5411 31.8719C64.4742 31.7344 64.3406 31.5969 64.2069 31.5626C63.3045 31.1844 62.3353 30.9094 61.3327 30.7719C59.9624 30.5657 58.5588 30.4626 57.1885 30.4626C54.8157 30.4626 52.8438 30.8407 51.2731 31.6657C49.836 32.3532 48.5994 33.4532 47.7639 34.8282C47.0286 36.1001 46.6276 37.5094 46.6276 38.9875C46.5942 40.1907 46.8615 41.3938 47.3963 42.4938C48.0313 43.6625 48.9002 44.6594 49.9362 45.4156C51.4067 46.4469 52.9775 47.2719 54.682 47.8906C56.3196 48.5438 57.4225 49.0594 57.9572 49.5063C58.4919 49.9531 58.7593 50.4 58.7593 50.8812C58.7593 51.5 58.3917 52.0844 57.8569 52.325C57.2554 52.6344 56.353 52.8062 55.083 52.8062C53.7462 52.8062 52.4094 52.6344 51.1394 52.2906C49.6689 51.9469 48.2986 51.3969 46.9952 50.6062C46.895 50.5375 46.7947 50.5031 46.6944 50.5719C46.5942 50.6406 46.5607 50.7781 46.5607 50.8812V56.8625C46.5273 57.1375 46.6944 57.3781 46.9284 57.5156C47.9978 58.0312 49.1676 58.4093 50.3373 58.6156C51.8412 58.925 53.3451 59.0625 54.8825 59.0625C57.2888 59.0625 59.294 58.6843 60.9317 57.9625C62.4356 57.3437 63.739 56.2781 64.6748 54.9031C65.5437 53.5625 66.0116 51.9469 65.9782 50.3313C66.0116 49.0938 65.7442 47.8906 65.2095 46.7906C64.5745 45.6219 63.6721 44.6594 62.5693 43.9375C60.9651 42.9063 59.2272 42.0469 57.4225 41.4282C56.6204 41.0844 55.8183 40.7063 55.0496 40.2938C54.6151 40.0532 54.2141 39.7438 53.9133 39.3657C53.7128 39.0907 53.5791 38.7813 53.5791 38.4719C53.5791 38.1625 53.6794 37.8188 53.8465 37.5438C54.0804 37.2001 54.448 36.9594 54.8825 36.8563C55.5175 36.6844 56.2193 36.5813 56.8877 36.6157C58.1577 36.6157 59.3943 36.7876 60.6309 37.0626Z" fill="#31A8FF"/>
</g>
<rect x="0.5" y="0.5" width="80" height="80" stroke="white"/>
<defs>
<clipPath id="clip0_19_22">
<rect width="81" height="81" fill="white"/>
</clipPath>
</defs>
</svg>
