<svg width="81" height="81" viewBox="0 0 81 81" fill="none" xmlns="http://www.w3.org/2000/svg">
<g clip-path="url(#clip0_182_271)">
<path fill-rule="evenodd" clip-rule="evenodd" d="M17.7188 22.5323V58.5334C17.7188 58.8483 17.8584 58.9882 18.1378 58.9882H24.9127C25.1572 58.9533 25.3318 58.7433 25.2969 58.4984V47.2678C25.9604 47.2678 26.4493 47.2678 26.7986 47.3027C27.1477 47.3377 27.7064 47.3377 28.5444 47.3377C31.4081 47.3377 34.0275 47.0228 36.4022 46.1482C38.6721 45.3085 40.6278 43.8391 42.0247 41.8798C43.4216 39.9206 44.12 37.4365 44.12 34.4277C44.12 32.8533 43.8406 31.3489 43.3168 29.8794C42.758 28.375 41.885 27.0105 40.7675 25.891C39.4404 24.5965 37.834 23.6169 36.0879 23.0221C34.1322 22.2874 31.7575 21.9375 28.8939 21.9375C27.8462 21.9375 26.7986 21.9375 25.716 21.9725C25.1933 21.9894 24.6869 21.9981 24.1968 22.0066C23.6718 22.0156 23.1654 22.0244 22.6777 22.0425C22.2204 22.0594 21.7795 22.0682 21.3511 22.0767C20.8961 22.0857 20.4553 22.0944 20.0236 22.1124C19.2204 22.1474 18.6617 22.1474 18.068 22.1474C17.8235 22.1474 17.7188 22.2874 17.7188 22.5323ZM25.3318 40.6903V28.9348C25.5763 28.8998 26.0652 28.8648 26.7636 28.8998C27.4272 28.8648 28.2304 28.8648 29.1383 28.8648C30.5702 28.8298 31.9671 29.0398 33.2592 29.5646C34.2719 29.9494 35.1101 30.6492 35.7037 31.5588C36.2625 32.5034 36.5419 33.588 36.507 34.6726C36.507 36.212 36.1577 37.4016 35.4244 38.2762C34.6561 39.1509 33.6782 39.8156 32.5607 40.1305C31.2686 40.5503 29.9066 40.7603 28.5447 40.7603H26.6938C26.3048 40.7603 25.8857 40.7301 25.4365 40.6978C25.4018 40.6953 25.3669 40.6928 25.3318 40.6903Z" fill="#E9F0F8"/>
<path d="M55.2602 30.9988H49.1488C49.1138 30.9639 49.044 30.9639 49.044 30.9988C48.8694 31.0338 48.7646 31.2088 48.7995 31.3837L48.8079 31.4802C48.8749 32.2501 48.9392 32.9903 48.9392 33.7628C48.9567 34.2176 48.9654 34.6724 48.9742 35.1273C48.9829 35.5821 48.9916 36.0369 49.0091 36.4917C49.044 37.4013 49.044 38.2759 49.044 39.1155V58.6382C49.0789 58.9181 49.3234 59.093 49.6028 59.0581H56.4825C56.7968 59.0581 56.9364 58.9181 56.9364 58.5682V40.7251C57.4254 40.1653 58.054 39.7455 58.7175 39.4306C59.6604 39.0108 60.6382 38.6959 61.651 38.486C62.8732 38.2061 64.1654 38.1011 65.4226 38.1361C65.8067 38.1361 65.9813 38.0311 65.9813 37.7512V30.7889C65.9464 30.544 65.7369 30.3691 65.4924 30.4041C63.6415 30.4041 61.7907 30.8589 60.1842 31.7685C58.7524 32.5383 57.4952 33.5529 56.4475 34.7774C56.4475 34.3226 56.4126 33.9027 56.3777 33.5179C56.3428 33.168 56.2729 32.7832 56.2031 32.4333C56.1682 32.1184 56.0983 31.8385 55.9935 31.5586C55.8888 31.2438 55.6094 30.9988 55.2602 30.9988Z" fill="#E9F0F8"/>
</g>
<rect x="0.5" y="0.5" width="80" height="80" stroke="white"/>
<defs>
<clipPath id="clip0_182_271">
<rect width="81" height="81" fill="white"/>
</clipPath>
</defs>
</svg>
