<svg width="80" height="80" viewBox="0 0 80 80" fill="none" xmlns="http://www.w3.org/2000/svg">
<rect x="0.5" y="0.5" width="79" height="79" stroke="white"/>
<path d="M63.5 13.3333L59.2182 61.3277L39.9712 66.6666L20.7773 61.3353L16.5 13.3333H63.5Z" fill="#264DE4"/>
<path d="M55.5525 58.2716L59.2116 17.2582H40.0001V62.5858L55.5525 58.2716Z" fill="#2965F1"/>
<path d="M26.3056 35.0614L26.833 40.9486H40V35.0614H26.3056Z" fill="#EBEBEB"/>
<path d="M39.9999 23.1454H39.9796H25.2458L25.7807 29.0328H39.9999V23.1454Z" fill="#EBEBEB"/>
<path d="M40 56.4763V50.3511L39.9742 50.358L33.4212 48.5876L33.0023 43.8922H29.8181H27.0958L27.9201 53.136L39.9729 56.4838L40 56.4763Z" fill="#EBEBEB"/>
<path d="M47.2251 40.9485L46.5421 48.5839L39.9797 50.3561V56.481L52.0421 53.1361L52.1306 52.1414L53.5132 36.6423L53.6568 35.0614L54.719 23.1454H39.9797V29.0328H48.2708L47.7354 35.0614H39.9797V40.9485H47.2251Z" fill="white"/>
</svg>
