<svg width="81" height="81" viewBox="0 0 81 81" fill="none" xmlns="http://www.w3.org/2000/svg">
<g clip-path="url(#clip0_19_26)">
<path d="M81 0H0V81H81V0Z" fill="#171717"/>
<path d="M40.6131 40.5001C40.6131 35.5296 44.6425 31.5001 49.6131 31.5001C54.5835 31.5001 58.6131 35.5296 58.6131 40.5001C58.6131 45.4707 54.5835 49.5001 49.6131 49.5001C44.6425 49.5001 40.6131 45.4707 40.6131 40.5001Z" fill="#1ABCFE"/>
<path d="M22.6125 58.4999C22.6125 53.5294 26.6419 49.4999 31.6125 49.4999H40.6125V58.4999C40.6125 63.4705 36.5831 67.4999 31.6125 67.4999C26.6419 67.4999 22.6125 63.4705 22.6125 58.4999Z" fill="#0ACF83"/>
<path d="M40.6131 13.5V31.5H49.6131C54.5837 31.5 58.6131 27.4706 58.6131 22.5C58.6131 17.5294 54.5837 13.5 49.6131 13.5H40.6131Z" fill="#FF7262"/>
<path d="M22.6125 22.5C22.6125 27.4706 26.6419 31.5 31.6125 31.5H40.6125V13.5H31.6125C26.6419 13.5 22.6125 17.5294 22.6125 22.5Z" fill="#F24E1E"/>
<path d="M22.6125 40.5001C22.6125 45.4707 26.6419 49.5001 31.6125 49.5001H40.6125V31.5001H31.6125C26.6419 31.5001 22.6125 35.5296 22.6125 40.5001Z" fill="#A259FF"/>
</g>
<rect x="0.5" y="0.5" width="80" height="80" stroke="white"/>
<defs>
<clipPath id="clip0_19_26">
<rect width="81" height="81" fill="white"/>
</clipPath>
</defs>
</svg>
