<svg width="81" height="81" viewBox="0 0 81 81" fill="none" xmlns="http://www.w3.org/2000/svg">
<g clip-path="url(#clip0_182_272)">
<path d="M81 0H0V81H81V0Z" fill="#171717"/>
<path d="M40.613 40.5001C40.613 35.5296 44.6424 31.5001 49.613 31.5001C54.5835 31.5001 58.6131 35.5296 58.6131 40.5001C58.6131 45.4707 54.5835 49.5001 49.613 49.5001C44.6424 49.5001 40.613 45.4707 40.613 40.5001Z" fill="#E9F0F8"/>
<path d="M22.6125 58.4999C22.6125 53.5294 26.642 49.4999 31.6126 49.4999H40.6126V58.4999C40.6126 63.4705 36.5832 67.4999 31.6126 67.4999C26.642 67.4999 22.6125 63.4705 22.6125 58.4999Z" fill="#E9F0F8"/>
<path d="M40.613 13.5V31.5H49.613C54.5837 31.5 58.6131 27.4706 58.6131 22.5C58.6131 17.5294 54.5837 13.5 49.613 13.5H40.613Z" fill="#C8D0D9"/>
<path d="M22.6125 22.5C22.6125 27.4706 26.642 31.5 31.6126 31.5H40.6126V13.5H31.6126C26.642 13.5 22.6125 17.5294 22.6125 22.5Z" fill="#E9F0F8"/>
<path d="M22.6125 40.5001C22.6125 45.4707 26.642 49.5001 31.6126 49.5001H40.6126V31.5001H31.6126C26.642 31.5001 22.6125 35.5296 22.6125 40.5001Z" fill="#C8D0D9"/>
</g>
<rect x="0.5" y="0.5" width="80" height="80" stroke="white"/>
<defs>
<clipPath id="clip0_182_272">
<rect width="81" height="81" fill="white"/>
</clipPath>
</defs>
</svg>
