<svg width="80" height="80" viewBox="0 0 80 80" fill="none" xmlns="http://www.w3.org/2000/svg">
<rect x="0.5" y="0.5" width="79" height="79" stroke="white"/>
<path d="M20.7751 61.3515L16.5 13.3333H63.5L59.2249 61.3255L39.9611 66.6666" fill="#E44D26"/>
<path d="M39.9998 62.5834V17.2747H59.2118L55.5456 58.2405" fill="#F16529"/>
<path d="M25.2315 23.1471H40V29.0327H31.683L32.2271 35.0609H40V40.9335H26.8379L25.2315 23.1471ZM27.097 43.8893H33.0044L33.419 48.5952L40 50.3582V56.5031L27.9261 53.1325" fill="#EBEBEB"/>
<path d="M54.7164 23.1471H39.9738V29.0327H54.1723L54.7164 23.1471ZM53.6411 35.0609H39.9738V40.9465H47.2285L46.5419 48.5952L39.9738 50.3582V56.4772L52.0218 53.1325" fill="white"/>
</svg>
