<svg width="80" height="80" viewBox="0 0 80 80" fill="none" xmlns="http://www.w3.org/2000/svg">
<g clip-path="url(#clip0_20_68)">
<path d="M80 0H0V80H80V0Z" fill="#F7DF1E"/>
<path d="M53.6878 62.3268C55.267 64.904 57.3215 66.7983 60.9552 66.7983C64.0077 66.7983 65.9577 65.2734 65.9577 63.1663C65.9577 60.6414 63.9542 59.7471 60.5943 58.2781L58.7526 57.4883C53.4365 55.2245 49.9048 52.3886 49.9048 46.3934C49.9048 40.8708 54.1147 36.6667 60.6939 36.6667C65.3778 36.6667 68.7452 38.2961 71.1718 42.5624L65.4351 46.2441C64.172 43.9804 62.8094 43.0885 60.6939 43.0885C58.5361 43.0885 57.1684 44.4568 57.1684 46.2441C57.1684 48.4532 58.5373 49.3475 61.6981 50.7157L63.5398 51.5043C69.7992 54.1872 73.3333 56.9223 73.3333 63.0718C73.3333 69.7014 68.123 73.3334 61.1257 73.3334C54.2839 73.3334 49.8638 70.0745 47.701 65.8032L53.6878 62.3268ZM27.6635 62.9648C28.8208 65.0172 29.8735 66.7523 32.4047 66.7523C34.8251 66.7523 36.352 65.8057 36.352 62.1253V37.0871H43.7189V62.2248C43.7189 69.8494 39.2464 73.3197 32.7183 73.3197C26.8198 73.3197 23.4039 70.2686 21.6667 66.5937L27.6635 62.9648Z" fill="black"/>
</g>
<rect x="0.5" y="0.5" width="79" height="79" stroke="white"/>
<defs>
<clipPath id="clip0_20_68">
<rect width="80" height="80" fill="white"/>
</clipPath>
</defs>
</svg>
