<svg width="80" height="80" viewBox="0 0 80 80" fill="none" xmlns="http://www.w3.org/2000/svg">
<g clip-path="url(#clip0_182_277)">
<path d="M53.6878 62.3268C55.2669 64.904 57.3215 66.7983 60.9551 66.7983C64.0077 66.7983 65.9577 65.2734 65.9577 63.1663C65.9577 60.6414 63.9542 59.7471 60.5943 58.2781L58.7525 57.4883C53.4364 55.2245 49.9048 52.3886 49.9048 46.3934C49.9048 40.8708 54.1146 36.6667 60.6938 36.6667C65.3778 36.6667 68.7452 38.2961 71.1718 42.5624L65.435 46.2441C64.1719 43.9804 62.8093 43.0885 60.6938 43.0885C58.536 43.0885 57.1684 44.4568 57.1684 46.2441C57.1684 48.4532 58.5373 49.3475 61.6981 50.7157L63.5398 51.5043C69.7992 54.1872 73.3333 56.9223 73.3333 63.0718C73.3333 69.7014 68.1229 73.3334 61.1256 73.3334C54.2839 73.3334 49.8637 70.0745 47.7009 65.8033L53.6878 62.3268ZM27.6634 62.9648C28.8207 65.0172 29.8735 66.7523 32.4046 66.7523C34.825 66.7523 36.3519 65.8057 36.3519 62.1253V37.0871H43.7188V62.2248C43.7188 69.8494 39.2464 73.3197 32.7182 73.3197C26.8197 73.3197 23.4038 70.2686 21.6666 66.5937L27.6634 62.9648Z" fill="#E9F0F8"/>
</g>
<rect x="0.5" y="0.5" width="79" height="79" stroke="white"/>
<defs>
<clipPath id="clip0_182_277">
<rect width="80" height="80" fill="white"/>
</clipPath>
</defs>
</svg>
