<svg width="80" height="80" viewBox="0 0 80 80" fill="none" xmlns="http://www.w3.org/2000/svg">
<g clip-path="url(#clip0_182_278)">
<path d="M45.0153 40.0001C45.0153 42.7379 42.7699 44.9573 40 44.9573C37.2302 44.9573 34.9848 42.7379 34.9848 40.0001C34.9848 37.2622 37.2302 35.0428 40 35.0428C42.7699 35.0428 45.0153 37.2622 45.0153 40.0001Z" fill="#E9F0F8"/>
<path fill-rule="evenodd" clip-rule="evenodd" d="M37.6746 19.0292C38.4432 19.6466 39.2202 20.3291 40 21.0716C40.7797 20.3291 41.5567 19.6466 42.3253 19.0292C44.4268 17.3409 46.5256 16.0901 48.4967 15.4598C50.4675 14.8296 52.4681 14.7769 54.1666 15.7463C55.8652 16.7156 56.8193 18.4544 57.2526 20.4566C57.6859 22.459 57.6394 24.881 57.211 27.5241C57.0543 28.4907 56.8449 29.4971 56.5842 30.5358C57.6246 30.832 58.6111 31.1559 59.5363 31.5051C62.0662 32.4599 64.2115 33.6311 65.7493 35.0032C67.2869 36.3752 68.3333 38.0614 68.3333 40C68.3333 41.9387 67.2869 43.6248 65.7493 44.9968C64.2115 46.3689 62.0662 47.5401 59.5363 48.4949C58.6111 48.8441 57.6246 49.168 56.5841 49.4642C56.8449 50.503 57.0543 51.5093 57.211 52.4759C57.6394 55.119 57.6859 57.541 57.2526 59.5434C56.8193 61.5456 55.8652 63.2844 54.1666 64.2537C52.4681 65.2231 50.4675 65.1704 48.4967 64.5402C46.5256 63.9099 44.4268 62.6591 42.3253 60.9708C41.5567 60.3534 40.7797 59.671 40 58.9284C39.2202 59.6709 38.4432 60.3534 37.6746 60.9708C35.5731 62.6591 33.4743 63.9099 31.5033 64.5402C29.5324 65.1704 27.5318 65.223 25.8333 64.2537C24.1347 63.2844 23.1806 61.5456 22.7474 59.5434C22.3141 57.541 22.3605 55.119 22.7889 52.4759C22.9456 51.5093 23.1551 50.503 23.4158 49.4642C22.3753 49.168 21.3888 48.8441 20.4636 48.4949C17.9337 47.5401 15.7884 46.3689 14.2506 44.9968C12.713 43.6248 11.6666 41.9387 11.6666 40C11.6666 38.0614 12.713 36.3752 14.2506 35.0032C15.7884 33.6311 17.9337 32.4599 20.4636 31.5051C21.3888 31.1559 22.3753 30.832 23.4158 30.5358C23.1551 29.4971 22.9456 28.4907 22.7889 27.5241C22.3605 24.881 22.314 22.459 22.7473 20.4566C23.1806 18.4544 24.1347 16.7156 25.8333 15.7463C27.5318 14.777 29.5324 14.8296 31.5032 15.4598C33.4743 16.0901 35.5731 17.3409 37.6746 19.0292ZM54.4712 21.0447C54.137 19.5004 53.5032 18.614 52.7445 18.1811C51.9857 17.7481 50.8923 17.6487 49.3722 18.1348C47.8522 18.6208 46.063 19.6494 44.1192 21.2109C43.418 21.7742 42.7045 22.4005 41.9846 23.0856C43.5393 24.7609 45.0856 26.6578 46.5786 28.7373C49.1469 28.9755 51.5822 29.3507 53.8273 29.844C54.0675 28.8851 54.2595 27.9612 54.4025 27.0793C54.7987 24.6346 54.8053 22.5888 54.4712 21.0447ZM35.8807 21.2109C36.5819 21.7742 37.2954 22.4005 38.0153 23.0856C36.4606 24.7609 34.9143 26.6578 33.4213 28.7373C30.853 28.9755 28.4178 29.3507 26.1727 29.844C25.9324 28.8851 25.7404 27.9612 25.5974 27.0793C25.2012 24.6346 25.1946 22.5888 25.5288 21.0447C25.8629 19.5004 26.4967 18.614 27.2555 18.1811C28.0142 17.7481 29.1076 17.6487 30.6277 18.1348C32.1477 18.6208 33.9369 19.6494 35.8807 21.2109ZM48.6508 31.7975C50.191 31.9995 51.662 32.2536 53.0489 32.5533C52.618 33.8904 52.1051 35.2766 51.512 36.696C51.0735 35.8717 50.6127 35.0452 50.1301 34.2189C49.6476 33.3927 49.1538 32.585 48.6508 31.7975ZM55.8119 33.2417C55.1215 35.4101 54.2326 37.6824 53.1572 40C54.2326 42.3177 55.1215 44.5899 55.8119 46.7583C56.7721 46.4846 57.6776 46.187 58.5217 45.8684C60.8618 44.9853 62.6575 43.968 63.8433 42.9099C65.0293 41.8517 65.489 40.866 65.489 40C65.489 39.134 65.0293 38.1484 63.8433 37.0901C62.6575 36.0321 60.8618 35.0148 58.5217 34.1316C57.6776 33.813 56.7721 33.5154 55.8119 33.2417ZM47.6669 35.6247C48.5246 37.0931 49.3073 38.5567 50.0133 40C49.3073 41.4433 48.5246 42.9069 47.6669 44.3753C46.8092 45.8437 45.9182 47.2456 45.0066 48.5715C43.3891 48.6889 41.7154 48.7507 40 48.7507C38.2846 48.7507 36.6108 48.6889 34.9933 48.5715C34.0817 47.2456 33.1907 45.8437 32.333 44.3753C31.4753 42.9069 30.6926 41.4433 29.9866 40C30.6926 38.5567 31.4753 37.0931 32.333 35.6247C33.1907 34.1563 34.0817 32.7544 34.9933 31.4285C36.6108 31.3111 38.2846 31.2494 40 31.2494C41.7154 31.2494 43.3891 31.3111 45.0066 31.4285C45.9182 32.7544 46.8092 34.1563 47.6669 35.6247ZM50.1302 45.7811C49.6476 46.6073 49.1538 47.415 48.6508 48.2025C50.1909 48.0005 51.662 47.7464 53.0489 47.4467C52.618 46.1097 52.1051 44.7234 51.512 43.304C51.0735 44.1283 50.6127 44.9548 50.1302 45.7811ZM40 51.5621C40.9651 51.5621 41.9197 51.5433 42.8612 51.5065C41.9141 52.7239 40.956 53.8561 40 54.8934C39.0439 53.8561 38.0858 52.7239 37.1387 51.5065C38.0802 51.5433 39.0348 51.5621 40 51.5621ZM46.5786 51.2628C45.0856 53.3422 43.5393 55.2392 41.9846 56.9144C42.7045 57.5995 43.418 58.2258 44.1192 58.7891C46.063 60.3506 47.8522 61.3792 49.3722 61.8652C50.8923 62.3513 51.9857 62.2519 52.7445 61.8189C53.5032 61.386 54.137 60.4997 54.4711 58.9553C54.8053 57.4112 54.7987 55.3654 54.4025 52.9207C54.2595 52.0388 54.0675 51.1149 53.8272 50.1561C51.5821 50.6493 49.1469 51.0245 46.5786 51.2628ZM33.4213 51.2628C34.9143 53.3422 36.4606 55.2392 38.0153 56.9144C37.2954 57.5995 36.5819 58.2258 35.8807 58.7891C33.9369 60.3506 32.1477 61.3792 30.6278 61.8652C29.1076 62.3513 28.0142 62.2519 27.2555 61.8189C26.4967 61.386 25.863 60.4996 25.5288 58.9553C25.1946 57.4112 25.2012 55.3654 25.5975 52.9207C25.7404 52.0388 25.9324 51.1149 26.1727 50.1561C28.4178 50.6493 30.853 51.0245 33.4213 51.2628ZM31.3491 48.2025C29.809 48.0005 28.3379 47.7464 26.951 47.4467C27.3819 46.1097 27.8948 44.7234 28.4879 43.304C28.9264 44.1283 29.3872 44.9549 29.8698 45.7811C30.3524 46.6073 30.8461 47.415 31.3491 48.2025ZM29.8698 34.2189C29.3872 35.0452 28.9264 35.8717 28.4879 36.696C27.8948 35.2766 27.3819 33.8904 26.951 32.5533C28.3379 32.2536 29.809 31.9995 31.3491 31.7975C30.8461 32.585 30.3524 33.3927 29.8698 34.2189ZM24.188 46.7583C24.8785 44.5899 25.7673 42.3177 26.8427 40C25.7673 37.6824 24.8784 35.4101 24.188 33.2417C23.2278 33.5154 22.3223 33.813 21.4782 34.1316C19.1381 35.0148 17.3424 36.0321 16.1566 37.0901C14.9706 38.1484 14.511 39.134 14.511 40C14.511 40.866 14.9706 41.8517 16.1566 42.9099C17.3424 43.968 19.1381 44.9853 21.4782 45.8684C22.3223 46.187 23.2278 46.4846 24.188 46.7583ZM40 28.4379C39.0348 28.4379 38.0802 28.4567 37.1387 28.4935C38.0858 27.2762 39.0439 26.1439 40 25.1066C40.956 26.1439 41.9141 27.2761 42.8612 28.4935C41.9197 28.4567 40.9651 28.4379 40 28.4379Z" fill="#E9F0F8"/>
</g>
<rect x="0.5" y="0.5" width="79" height="79" stroke="white"/>
<defs>
<clipPath id="clip0_182_278">
<rect width="80" height="80" fill="white"/>
</clipPath>
</defs>
</svg>
