<svg width="997" height="972" viewBox="0 0 997 972" fill="none" xmlns="http://www.w3.org/2000/svg">
<path d="M345.956 956.821L330.513 951.377L344.476 911.766L359.919 917.21L345.956 956.821Z" fill="#71E5FF"/>
<path d="M261.867 905.418L273.105 897.605L263.14 891.804L261.867 905.418ZM304.78 895.87L264.176 920.829L247.352 911.033L249.013 863.401L264.946 872.677L264.192 880.556L282.368 891.137L288.847 886.593L304.78 895.87Z" fill="#71E5FF"/>
<path d="M244.044 860.477L217.098 892.694L201.373 879.542L202.285 852.928L176.227 858.511L160.526 845.38L187.472 813.162L200.033 823.668L185.658 840.855L212.617 834.193L218.898 839.446L217.108 867.159L231.483 849.972L244.044 860.477Z" fill="#71E5FF"/>
<path d="M126.49 784.393C127.98 783.307 125.181 779.044 121.55 773.531C115.127 763.712 106.082 749.925 114.611 743.746C124.308 736.678 134.706 746.114 143.394 758.034C152.039 769.946 157.797 780.869 148.187 789.808L138.081 775.944C139.603 772.515 137.726 768.507 134.707 764.366C131.707 760.25 127.343 755.696 124.717 757.61C123.227 758.696 126 762.978 129.632 768.491C136.055 778.31 145.099 792.097 136.595 798.257C126.898 805.326 116.476 795.908 107.787 783.988C99.1929 772.039 93.3339 761.189 103.02 752.195L113.126 766.059C111.553 769.526 113.481 773.496 116.499 777.638C119.5 781.754 123.788 786.363 126.49 784.393Z" fill="#71E5FF"/>
<path d="M70.9138 725.005C63.5226 711.026 61.6077 697.51 75.6417 690.09L78.3491 688.658C92.3538 681.183 102.462 690.473 109.866 704.409C117.23 718.402 119.216 731.987 105.153 739.352L102.446 740.783C88.4133 748.274 78.3326 738.969 70.9138 725.005ZM85.0915 703.616L84.1799 704.098C78.086 707.214 79.6394 712.827 82.6825 718.782C85.9059 724.678 89.6694 729.122 95.6757 725.84L96.5873 725.358C102.709 722.227 101.155 716.615 98.0978 710.632C94.889 704.764 91.1254 700.32 85.0915 703.616Z" fill="#71E5FF"/>
<path d="M55.5818 603.963L61.9025 627.731L75.7645 624.044L79.9729 639.869L39.3837 650.663L35.1752 634.838L49.0372 631.152L42.7165 607.384L28.8545 611.071L24.6381 595.216L65.2273 584.421L69.4438 600.277L55.5818 603.963Z" fill="#71E5FF"/>
<path d="M30.7447 549.759L43.7043 554.162L42.4548 542.698L30.7447 549.759ZM63.9108 578.616L19.7165 560.769L17.6069 541.415L56.918 514.465L58.9159 532.794L52.1297 536.866L54.4087 557.773L61.9128 560.287L63.9108 578.616Z" fill="#71E5FF"/>
<path d="M35.1467 491.367L35.9794 471.384C36.0197 470.416 35.7114 469.559 35.0531 468.843C34.3649 468.095 33.5362 467.717 32.5683 467.676C31.5692 467.635 30.7119 467.943 29.995 468.633C29.2483 469.29 28.8697 470.118 28.8294 471.086L27.9966 491.069L35.1467 491.367ZM15.0442 506.918L16.7292 466.485C16.996 457.832 24.5767 450.798 33.2514 451.284C41.9054 451.52 48.937 459.163 48.4517 467.807L47.4485 491.88L57.6896 492.306L57.0078 508.667L15.0442 506.918Z" fill="#71E5FF"/>
<path d="M40.7904 426.195L44.4281 406.529C44.6043 405.576 44.4198 404.684 43.8688 403.883C43.2928 403.045 42.5256 402.554 41.573 402.378C40.5897 402.196 39.6975 402.38 38.8908 402.962C38.0589 403.507 37.5675 404.275 37.3913 405.227L33.7535 424.894L40.7904 426.195ZM18.6988 438.762L26.0595 398.968C27.5417 390.439 36.0372 384.542 44.5571 386.245C53.0917 387.697 58.9772 396.254 57.2799 404.743L52.8975 428.435L62.9766 430.299L59.9982 446.401L18.6988 438.762Z" fill="#71E5FF"/>
<path d="M38.1273 353.043L56.3702 346.342L46.1434 329.793L52.4789 311.417L70.9449 342.707L84.5053 347.382L79.168 362.863L65.6076 358.187L31.7817 371.449L38.1273 353.043Z" fill="#71E5FF"/>
<path d="M71.6974 264.339L79.8229 250.122L103.834 263.845L95.7087 278.062L71.6974 264.339ZM101.054 281.117L109.179 266.9L119.842 272.994L111.716 287.211L101.054 281.117Z" fill="#71E5FF"/>
<path d="M110.208 211.672L120.167 198.674L153.507 224.217L143.548 237.216L110.208 211.672Z" fill="#71E5FF"/>
<path d="M185.125 147.635L189.073 160.74L197.676 153.062L185.125 147.635ZM180.915 191.396L169.756 145.058L184.281 132.094L229.058 148.424L215.303 160.702L208.045 157.545L192.355 171.55L194.67 179.118L180.915 191.396Z" fill="#71E5FF"/>
<path d="M233.376 144.605L211.087 109.007L228.462 98.1282L253.486 107.237L256.246 80.7315L273.595 69.8688L295.884 105.467L282.005 114.157L270.114 95.1659L268.1 122.863L261.16 127.208L235.364 116.924L247.255 135.915L233.376 144.605Z" fill="#71E5FF"/>
<path d="M342.124 56.3912C342.695 58.1442 347.616 56.8037 353.982 55.0578C365.308 51.9914 381.218 47.6613 384.451 57.684C388.169 69.0934 375.977 76.0575 361.953 80.6276C347.949 85.1583 335.779 87.2506 330.256 75.3447L346.568 70.0291C349.358 72.5382 353.749 71.9946 358.622 70.4066C363.465 68.8284 369.146 66.0897 368.139 62.9996C367.568 61.2466 362.637 62.5574 356.271 64.3033C344.945 67.3697 329.035 71.6998 325.812 61.7068C322.094 50.2974 334.276 43.3036 348.3 38.7335C362.324 34.2622 374.454 32.0511 380.007 44.0461L363.695 49.3617C360.886 46.7932 356.514 47.3962 351.641 48.9842C346.798 50.5624 341.088 53.212 342.124 56.3912Z" fill="#71E5FF"/>
<path d="M415.803 21.9385C431.383 19.2396 444.828 21.6045 447.538 37.2465L448.061 40.2641C450.832 55.8954 438.868 62.63 423.324 65.3544C407.738 68.0226 394.206 65.7045 391.558 50.0518L391.036 47.0342C388.259 31.372 400.228 24.6683 415.803 21.9385ZM431.75 42.0429L431.574 41.0268C430.498 34.2675 424.681 34.0066 418.075 35.0557C411.471 36.2948 406.08 38.4973 407.341 45.2246L407.517 46.2407C408.598 53.0308 414.415 53.2917 421.052 52.2373C427.625 51.0035 433.016 48.801 431.75 42.0429Z" fill="#71E5FF"/>
<path d="M535.643 44.8444L511.086 43.4941L510.299 57.8162L493.948 56.9171L496.254 14.9805L512.605 15.8796L511.817 30.2017L536.374 31.552L537.161 17.2299L553.543 18.1307L551.237 60.0673L534.855 59.1665L535.643 44.8444Z" fill="#71E5FF"/>
<path d="M594.874 38.014L586.674 48.9731L597.961 51.335L594.874 38.014ZM557.165 60.6133L587.821 24.1185L606.877 28.1061L620.328 73.8305L602.281 70.0541L600.511 62.3405L579.926 58.033L575.211 64.3896L557.165 60.6133Z" fill="#71E5FF"/>
<path d="M649.032 60.2823L667.775 67.2623C668.683 67.6004 669.593 67.5727 670.477 67.1684C671.402 66.7456 672.018 66.0749 672.357 65.1671C672.706 64.2299 672.678 63.3193 672.244 62.4242C671.851 61.5107 671.18 60.8941 670.272 60.556L651.53 53.576L649.032 60.2823ZM640.471 36.3521L678.395 50.4756C686.539 53.4088 690.88 62.7952 687.731 70.8928C684.827 79.0484 675.382 83.3675 667.314 80.2293L644.735 71.8206L641.158 81.4261L625.813 75.7113L640.471 36.3521Z" fill="#71E5FF"/>
<path d="M709.253 85.8306L726.826 95.3798C727.677 95.8423 728.582 95.9431 729.515 95.6673C730.489 95.3789 731.194 94.8017 731.657 93.9505C732.134 93.0719 732.235 92.1664 731.932 91.2191C731.671 90.2593 731.094 89.5544 730.242 89.0919L712.669 79.5428L709.253 85.8306ZM704.145 60.9334L739.703 80.2555C747.354 84.3061 750.33 94.2101 746.072 101.784C742.049 109.449 732.09 112.396 724.544 108.153L703.374 96.6491L698.48 105.655L684.092 97.837L704.145 60.9334Z" fill="#71E5FF"/>
<path d="M779.633 105.952L780.355 125.373L799.258 120.774L814.769 132.489L779.299 140.357L770.654 151.803L757.587 141.934L766.232 130.488L764.097 94.2185L779.633 105.952Z" fill="#71E5FF"/>
<path d="M853.581 165.342L864.583 177.47L844.098 196.051L833.097 183.923L853.581 165.342ZM828.537 188.059L839.538 200.188L830.442 208.439L819.44 196.31L828.537 188.059Z" fill="#71E5FF"/>
<path d="M891.733 218.269L901.008 231.764L866.396 255.555L857.12 242.06L891.733 218.269Z" fill="#71E5FF"/>
<path d="M929.422 309.334L915.738 309.03L920.375 319.587L929.422 309.334ZM889.116 291.779L936.631 295.518L944.46 313.344L915.066 350.862L907.652 333.981L912.901 328.058L904.443 308.802L896.531 308.66L889.116 291.779Z" fill="#71E5FF"/>
<path d="M917.361 356.151L958.111 345.982L963.075 365.872L946.664 386.844L971.012 397.678L975.968 417.537L935.218 427.707L931.253 411.819L952.993 406.394L927.281 395.901L925.298 387.957L943.065 366.614L921.326 372.039L917.361 356.151Z" fill="#71E5FF"/>
<path d="M967.561 486.871C965.718 486.871 965.468 491.965 965.157 498.559C964.565 510.278 963.756 526.747 953.224 526.717C941.224 526.719 938.378 512.97 938.376 498.22C938.405 483.501 940.184 471.282 953.215 469.717L953.218 486.873C949.968 488.749 949.125 493.093 949.126 498.218C949.127 503.312 949.971 509.561 953.221 509.561C955.065 509.561 955.346 504.467 955.657 497.873C956.249 486.154 957.058 469.685 967.558 469.715C979.558 469.713 982.436 483.462 982.438 498.212C982.347 512.931 980.693 525.15 967.568 526.715L967.565 509.558C970.877 507.683 971.658 503.339 971.657 498.214C971.656 493.12 970.905 486.87 967.561 486.871Z" fill="#71E5FF"/>
<path d="M977.504 567.598C975.245 583.248 968.833 595.299 953.121 593.032L950.089 592.594C934.368 590.389 931.67 576.928 933.893 561.304C936.182 545.658 942.577 533.509 958.28 535.839L961.311 536.276C977.064 538.486 979.731 551.943 977.504 567.598ZM953.449 576.535L954.47 576.682C961.23 577.752 963.28 572.302 964.328 565.696C965.194 559.033 964.77 553.225 957.983 552.34L956.962 552.193C950.171 551.118 948.121 556.569 947.069 563.205C946.206 569.838 946.631 575.645 953.449 576.535Z" fill="#71E5FF"/>
<path d="M918.612 674.453L927.501 651.521L914.127 646.337L920.045 631.069L959.206 646.249L953.288 661.517L939.913 656.333L931.025 679.264L944.399 684.448L938.469 699.745L899.308 684.566L905.238 669.269L918.612 674.453Z" fill="#71E5FF"/>
<path d="M906.764 732.888L898.883 721.697L893.142 731.698L906.764 732.888ZM896.953 690.033L922.161 730.484L912.468 747.368L864.826 745.998L874.005 730.008L881.888 730.714L892.358 712.475L887.774 706.023L896.953 690.033Z" fill="#71E5FF"/>
<path d="M868.819 777.487L856.378 793.147C855.775 793.906 855.52 794.78 855.63 795.746C855.746 796.756 856.193 797.55 856.951 798.152C857.734 798.774 858.609 799.03 859.594 798.895C860.585 798.804 861.379 798.357 861.981 797.599L874.422 781.939L868.819 777.487ZM894.224 776.757L869.051 808.443C863.739 815.279 853.47 816.5 846.746 810.998C839.89 805.711 838.709 795.393 844.191 788.693L859.179 769.828L851.153 763.452L861.339 750.631L894.224 776.757Z" fill="#71E5FF"/>
<path d="M825.877 826.836L811.356 840.588C810.652 841.254 810.276 842.084 810.25 843.055C810.222 844.072 810.553 844.921 811.219 845.624C811.906 846.35 812.736 846.726 813.731 846.731C814.724 846.78 815.573 846.45 816.276 845.784L830.798 832.032L825.877 826.836ZM851.132 829.689L821.749 857.516C815.528 863.536 805.189 863.299 799.306 856.905C793.263 850.706 793.546 840.324 799.917 834.463L817.411 817.896L810.363 810.453L822.253 799.194L851.132 829.689Z" fill="#71E5FF"/>
<path d="M784.95 887.525L766.26 882.198L764.779 901.596L748.837 912.716L752.339 876.553L744.133 864.788L757.564 855.42L765.77 867.184L800.918 876.387L784.95 887.525Z" fill="#71E5FF"/>
<path d="M705.58 939.446L690.64 946.151L679.316 920.92L694.256 914.215L705.58 939.446ZM691.735 908.598L676.796 915.303L671.767 904.099L686.706 897.394L691.735 908.598Z" fill="#71E5FF"/>
</svg>
