<svg width="1148" height="1082" viewBox="0 0 1148 1082" fill="none" xmlns="http://www.w3.org/2000/svg">
<path d="M332.994 1032.16L310.854 1067.85L293.434 1057.04L290.589 1030.57L265.577 1039.76L248.183 1028.97L270.324 993.283L284.239 1001.92L272.427 1020.96L298.181 1010.56L305.138 1014.88L307.268 1042.57L319.08 1023.53L332.994 1032.16Z" fill="#71E5FF"/>
<path d="M224.094 1009.26L224.388 989.83L205.27 993.435L190.393 980.926L226.226 974.922L235.457 963.943L247.99 974.482L238.759 985.46L238.995 1021.79L224.094 1009.26Z" fill="#71E5FF"/>
<path d="M155.152 922.216C156.595 921.068 153.619 916.926 149.758 911.572C142.926 902.032 133.308 888.639 141.568 882.106C150.959 874.635 161.745 883.624 170.929 895.166C180.069 906.703 186.283 917.373 177.059 926.71L166.377 913.285C167.752 909.794 165.708 905.87 162.517 901.859C159.345 897.873 154.794 893.508 152.251 895.531C150.808 896.679 153.759 900.84 157.62 906.195C164.452 915.735 174.07 929.127 165.834 935.641C156.444 943.112 145.633 934.143 136.45 922.601C127.358 911.025 121.047 900.432 130.344 891.037L141.026 904.462C139.602 907.992 141.695 911.878 144.886 915.888C148.058 919.874 152.536 924.298 155.152 922.216Z" fill="#71E5FF"/>
<path d="M129.972 837.658L138.548 851.608L114.11 866.633L124.306 883.218L112.966 890.19L83.9966 843.07L95.3373 836.098L105.534 852.683L129.972 837.658Z" fill="#71E5FF"/>
<path d="M78.6555 833.272L61.7369 796.51C58.0329 788.686 61.5771 778.97 69.5213 775.452C72.3885 774.132 75.3529 773.697 78.3862 774.159C81.3781 774.605 84.0657 775.811 86.3793 777.773L93.2537 764.53L100.544 780.371L94.5377 791.838L100.652 805.123L109.963 800.838L116.809 815.714L78.6555 833.272ZM74.6179 795.123L82.9662 813.263L89.467 810.271L81.1188 792.131C80.7007 791.223 80.0357 790.6 79.1238 790.263C78.1704 789.91 77.2602 789.951 76.3801 790.356C74.5633 791.192 73.7818 793.306 74.6179 795.123Z" fill="#71E5FF"/>
<path d="M91.2116 758.762L51.3063 771.861L35.9762 725.156L46.1901 721.804L56.4134 752.95L61.5203 751.274L51.297 720.127L60.5311 717.096L70.7544 748.243L75.8613 746.566L65.638 715.42L75.8816 712.058L91.2116 758.762Z" fill="#71E5FF"/>
<path d="M46.3794 669.88L24.5819 674.345L21.2898 658.272L62.4355 649.844L66.1353 667.907L45.5283 695.159L70.6627 690.01L73.9486 706.052L32.8029 714.48L28.2817 692.407L46.3794 669.88Z" fill="#71E5FF"/>
<path d="M43.4773 616.633L36.3123 617.202L34.0538 588.76L58.072 586.853L58.7201 595.014L52.2736 596.341C57.4569 600.82 59.7566 608.067 60.3206 615.17C61.51 630.938 57.9859 644.196 42.1558 645.39L39.1029 645.632C23.2515 646.954 17.6792 634.418 16.3963 618.658C15.2436 604.141 18.25 591.864 31.0009 589.002L32.3788 606.354C31.0586 607.493 30.2428 609.063 29.8977 611.034C29.5527 613.005 29.4766 615.205 29.6671 617.604C30.2924 624.294 31.9887 629.865 38.8035 629.23L39.8315 629.148C46.7235 628.695 47.4571 622.931 47.0187 616.226C46.5066 609.778 45.8063 605.695 42.4334 603.486L43.4773 616.633Z" fill="#71E5FF"/>
<path d="M58.4997 544.779L57.8181 561.14L29.1555 559.946L28.3452 579.398L15.0442 578.843L17.3464 523.579L30.6474 524.133L29.837 543.585L58.4997 544.779Z" fill="#71E5FF"/>
<path d="M52.2592 476.47L48.2801 500.74L62.4349 503.061L59.7855 519.22L18.3389 512.425L20.9883 496.265L35.143 498.586L39.1221 474.316L24.9674 471.996L27.6218 455.806L69.0684 462.601L66.414 478.791L52.2592 476.47Z" fill="#71E5FF"/>
<path d="M48.2017 432.301C49.9709 432.82 51.6445 428.003 53.8001 421.763C57.6681 410.685 63.0828 395.111 73.1795 398.105C84.6945 401.482 83.5534 415.477 79.402 429.631C75.2295 443.746 70.0813 454.969 57.1371 452.801L61.9657 436.338C65.612 435.454 67.6442 431.523 69.0866 426.605C70.5202 421.717 71.4696 415.482 68.351 414.568C66.5818 414.049 64.8783 418.857 62.7226 425.097C58.8546 436.175 53.4399 451.749 43.3732 448.764C31.8582 445.386 32.9693 431.383 37.1207 417.229C41.3532 403.132 46.3814 391.873 59.4156 394.068L54.587 410.531C50.8807 411.398 48.9085 415.346 47.4661 420.264C46.0325 425.152 44.9931 431.36 48.2017 432.301Z" fill="#71E5FF"/>
<path d="M90.983 319.45L99.2545 330.355L104.639 320.158L90.983 319.45ZM102.301 361.931L75.6808 322.396L84.7711 305.18L132.432 304.866L123.823 321.17L115.921 320.744L106.101 339.342L110.91 345.627L102.301 361.931Z" fill="#71E5FF"/>
<path d="M101.365 275.756L124.692 242.687C129.605 235.56 139.788 233.756 146.815 238.866C149.394 240.685 151.257 243.032 152.378 245.888C153.492 248.7 153.796 251.63 153.258 254.616L168.163 253.925L158.112 268.174L145.178 268.726L136.748 280.677L145.124 286.585L135.685 299.966L101.365 275.756ZM132.35 253.137L120.839 269.454L126.687 273.58L138.198 257.262C138.774 256.445 138.979 255.557 138.814 254.599C138.641 253.598 138.15 252.83 137.358 252.272C135.724 251.119 133.503 251.503 132.35 253.137Z" fill="#71E5FF"/>
<path d="M172.13 249.266L140.791 221.304L173.517 184.626L181.538 191.783L159.714 216.243L163.724 219.821L185.549 195.361L192.801 201.831L170.976 226.292L174.987 229.87L196.811 205.41L204.856 212.588L172.13 249.266Z" fill="#71E5FF"/>
<path d="M235.225 155.167L251.06 142.95C251.827 142.358 252.285 141.571 252.41 140.606C252.54 139.598 252.296 138.72 251.705 137.953C251.094 137.162 250.306 136.704 249.317 136.598C248.334 136.449 247.456 136.692 246.689 137.284L230.854 149.501L235.225 155.167ZM210.387 149.78L242.428 125.06C249.224 119.698 259.486 120.977 264.694 127.932C270.081 134.709 268.752 145.009 261.823 150.198L242.747 164.916L249.008 173.031L236.043 183.034L210.387 149.78Z" fill="#71E5FF"/>
<path d="M264.201 109.043L298.989 88.3665C306.382 83.8632 316.415 86.3702 320.746 93.9021C322.359 96.6152 323.102 99.5178 322.961 102.583C322.831 105.605 321.913 108.404 320.204 110.91L334.094 116.36L319.104 125.269L307.071 120.497L294.499 127.97L299.736 136.781L285.66 145.147L264.201 109.043ZM301.718 101.031L284.552 111.234L288.208 117.386L305.374 107.183C306.233 106.672 306.783 105.945 307.023 105.003C307.274 104.018 307.138 103.117 306.643 102.284C305.621 100.565 303.437 100.009 301.718 101.031Z" fill="#71E5FF"/>
<path d="M348.402 62.5553C362.876 56.1881 376.495 55.2499 382.887 69.781L384.12 72.5842C390.57 87.0902 380.577 96.5046 366.145 102.888C351.658 109.226 337.966 110.231 331.631 95.6747L330.398 92.8714C323.936 78.3368 333.941 68.9511 348.402 62.5553ZM368.716 78.234L368.301 77.29C365.631 70.9879 359.922 72.1338 353.763 74.7409C347.65 77.5321 342.948 80.9664 345.789 87.1931L346.205 88.137C348.887 94.4678 354.596 93.3218 360.784 90.7022C366.868 87.9236 371.571 84.4892 368.716 78.234Z" fill="#71E5FF"/>
<path d="M410.491 74.0625L431.586 67.7079C432.932 67.3023 433.634 65.6223 433.228 64.2758C432.823 62.9293 431.31 61.9164 429.963 62.322L408.868 68.6766L410.491 74.0625ZM422.299 47.4963L404.136 52.9676L405.768 58.3835L423.93 52.9122C425.277 52.5066 425.969 50.7967 425.564 49.4502C425.158 48.1037 423.645 47.0907 422.299 47.4963ZM437.781 53.6028C442.77 53.6989 446.868 56.2505 448.391 61.3073C450.599 68.3119 445.811 73.8667 438.899 75.9489L397.696 88.3607L385.582 48.1457L423.822 36.6263C430.785 34.4962 437.824 36.5206 439.843 43.5493C441.006 47.4092 440.103 50.9123 437.781 53.6028Z" fill="#71E5FF"/>
<path d="M450.165 29.4595L466.28 26.5531L471.372 54.7852L503.633 48.9668L505.996 62.068L457.62 70.7927L450.165 29.4595Z" fill="#71E5FF"/>
<path d="M512.279 61.311L509.3 19.4168L558.333 15.9302L559.095 26.6531L526.397 28.9783L526.778 34.3397L559.477 32.0145L560.166 41.7088L527.467 44.034L527.849 49.3955L560.547 47.0703L561.312 57.8244L512.279 61.311Z" fill="#71E5FF"/>
<path d="M567.554 56.9052L570.051 14.9794L590.515 16.198L605.612 38.1343L623.238 18.1466L643.671 19.3634L641.174 61.2891L624.828 60.3157L626.16 37.9491L608.451 59.3405L600.278 58.8538L585.232 35.5119L583.9 57.8785L567.554 56.9052Z" fill="#71E5FF"/>
<path d="M651.738 36.1883L697.028 44.7608L694.744 56.8278L649.454 48.2553L651.738 36.1883Z" fill="#71E5FF"/>
<path d="M722.951 50.7674C722.408 52.5292 727.201 54.27 733.41 56.5129C744.432 60.5356 759.929 66.168 756.794 76.2218C753.256 87.6883 739.279 86.3513 725.184 82.0021C711.129 77.6322 699.979 72.3274 702.328 59.4147L718.722 64.4734C719.555 68.1318 723.457 70.2188 728.354 71.73C733.221 73.232 739.442 74.2686 740.401 71.1631C740.944 69.4013 736.16 67.6306 729.951 65.3878C718.929 61.365 703.432 55.7327 706.558 45.7087C710.096 34.2422 724.082 35.5494 738.177 39.8986C752.213 44.3281 763.401 49.5136 761.024 62.5157L744.63 57.4571C743.815 53.739 739.895 51.7116 734.998 50.2005C730.13 48.6985 723.937 47.5723 722.951 50.7674Z" fill="#71E5FF"/>
<path d="M802.555 64.1458C816.98 70.6238 826.802 80.1047 820.298 94.5864L819.043 97.3801C812.597 111.887 798.913 110.778 784.504 104.341C770.092 97.8343 760.172 88.3435 766.733 73.8875L767.987 71.0938C774.447 56.558 788.118 57.6962 802.555 64.1458ZM804.528 89.7308L804.95 88.7901C807.84 82.5854 803.163 79.1151 797.101 76.2898C790.934 73.6228 785.233 72.4331 782.515 78.7145L782.093 79.6553C779.191 85.8884 783.867 89.3588 789.958 92.1968C796.097 94.8511 801.797 96.0408 804.528 89.7308Z" fill="#71E5FF"/>
<path d="M837.892 82.0626L851.96 90.4425L837.279 115.089L865.443 131.865L858.63 143.302L816.398 118.146L837.892 82.0626Z" fill="#71E5FF"/>
<path d="M904.283 124.545L896.617 155.455L924.572 140.198L939.17 151.46L896.467 171.561L881.052 159.669L889.686 113.282L904.283 124.545Z" fill="#71E5FF"/>
<path d="M946.027 158.483L958.06 169.589L929.573 200.452L917.54 189.345L946.027 158.483Z" fill="#71E5FF"/>
<path d="M976.818 221.093L993.22 206.058L1004.31 218.152L973.345 246.533L960.886 232.941L964.553 198.973L945.64 216.309L934.575 204.238L965.536 175.858L980.761 192.467L976.818 221.093Z" fill="#71E5FF"/>
<path d="M1006.68 265.275L1012.53 261.103L1029.09 284.339L1009.47 298.321L1004.72 291.653L1009.56 287.201C1002.82 286.024 997.118 280.99 992.984 275.188C983.858 262.274 980.065 249.09 993.03 239.928L995.524 238.151C1008.44 228.869 1019.66 236.757 1028.87 249.617C1037.32 261.476 1041.05 273.552 1031.58 282.561L1021.48 268.386C1022.03 266.73 1021.92 264.965 1021.21 263.096C1020.49 261.228 1019.42 259.302 1018.03 257.342C1014.05 251.925 1009.73 248.019 1004.21 252.067L1003.37 252.665C997.694 256.597 1000.03 261.918 1003.85 267.444C1007.6 272.712 1010.3 275.854 1014.33 276.014L1006.68 265.275Z" fill="#71E5FF"/>
<path d="M1072.33 352.244L1058.64 352.005L1063.33 362.541L1072.33 352.244ZM1031.94 334.883L1079.47 338.394L1087.38 356.181L1058.17 393.841L1050.68 376.996L1055.9 371.047L1047.35 351.832L1039.43 351.728L1031.94 334.883Z" fill="#71E5FF"/>
<path d="M1090.68 433.042L1112.01 426.698L1116.68 442.423L1076.43 454.398L1071.17 436.726L1089.33 407.785L1064.74 415.1L1060.07 399.405L1100.32 387.43L1106.75 409.026L1090.68 433.042Z" fill="#71E5FF"/>
<path d="M1105.25 497.232C1109.44 496.528 1112.43 493.586 1111.73 489.395L1108.76 471.705L1093.6 474.251L1096.57 491.94C1097.27 496.132 1101.09 497.931 1105.25 497.232ZM1119.18 453.352L1125.36 490.211C1127.43 501.557 1119.29 511.605 1107.97 513.412C1096.73 515.393 1085.7 508.563 1083.94 497.165L1077.76 460.306L1119.18 453.352Z" fill="#71E5FF"/>
<path d="M1089.29 595.348L1089.7 578.978L1118.38 579.71L1118.88 560.248L1132.19 560.588L1130.78 615.882L1117.47 615.542L1117.97 596.08L1089.29 595.348Z" fill="#71E5FF"/>
<path d="M1088.14 620.926L1129.74 626.733L1122.94 675.417L1112.29 673.931L1116.83 641.465L1111.5 640.721L1106.97 673.188L1097.35 671.844L1101.88 639.378L1096.55 638.634L1092.02 671.101L1081.34 669.61L1088.14 620.926Z" fill="#71E5FF"/>
<path d="M1101.1 714.735L1090.61 705.953L1087.63 717.095L1101.1 714.735ZM1080.58 675.856L1115.36 708.446L1110.35 727.258L1063.96 738.209L1068.71 720.394L1076.51 719.044L1081.93 698.723L1075.83 693.671L1080.58 675.856Z" fill="#71E5FF"/>
<path d="M1062.43 743.852L1101.03 760.416L1092.95 779.255L1067.19 786.02L1080.02 809.379L1071.94 828.188L1033.35 811.623L1039.81 796.576L1060.4 805.413L1046.28 781.499L1049.51 773.976L1076.57 767.736L1055.98 758.899L1062.43 743.852Z" fill="#71E5FF"/>
<path d="M1008.22 880.641L1025.14 903.354L1015.05 918.786L989.985 880.371L1000.64 864.076L1023.26 867.852L1010.73 848.644L1021.38 832.349L1066.62 839.901L1056.54 855.332L1028.96 848.914L1045.88 871.627L1035.79 887.059L1008.22 880.641Z" fill="#71E5FF"/>
<path d="M987.668 949.946C977.037 961.651 964.978 968.05 953.226 957.377L950.959 955.318C939.165 944.691 944.463 932.025 955.05 920.322C965.704 908.638 977.803 902.149 989.512 912.868L991.779 914.927C1003.6 925.575 998.276 938.22 987.668 949.946ZM962.732 943.889L963.495 944.583C968.498 949.253 973.247 945.883 977.813 940.996C982.261 935.959 985.159 930.909 980.03 926.377L979.267 925.683C974.24 920.992 969.491 924.362 964.905 929.272C960.478 934.286 957.579 939.336 962.732 943.889Z" fill="#71E5FF"/>
<path d="M959.588 978.26L928.941 1004.69C922.447 1010.41 912.13 1009.69 906.551 1003.03C904.49 1000.64 903.251 997.915 902.856 994.873C902.457 991.874 902.872 988.958 904.118 986.192L889.49 983.249L902.695 971.862L915.377 974.461L926.452 964.91L919.758 957.147L932.159 946.453L959.588 978.26ZM924.044 992.694L939.167 979.653L934.493 974.234L919.371 987.275C918.613 987.928 918.199 988.739 918.127 989.709C918.052 990.723 918.343 991.586 918.976 992.32C920.282 993.834 922.53 994 924.044 992.694Z" fill="#71E5FF"/>
<path d="M873.105 1012.05L879.064 1008.08L871.121 996.139L884.755 987.071L908.015 1022.04L894.38 1031.11L886.436 1019.17L880.478 1023.13L875.593 1043.61L857.691 1055.51L864.198 1025.96L834.432 1020.54L852.334 1008.63L873.105 1012.05Z" fill="#71E5FF"/>
<path d="M834.574 1033.66L820.208 1041.52L814.314 1030.75L828.68 1022.89L834.574 1033.66Z" fill="#71E5FF"/>
</svg>
