<svg xmlns="http://www.w3.org/2000/svg" viewBox="0 0 113.39 113.39"><defs><style>.cls-1{fill:#151226;}.cls-2,.cls-3{fill:none;stroke:#e27a61;stroke-miterlimit:10;stroke-width:3px;}.cls-3{stroke-dasharray:7.93 4.41;}.cls-4{fill:#71e5ff;}</style></defs><title>logosmall</title><g id="圖層_1" data-name="圖層 1"><rect class="cls-1" width="113.39" height="113.39"/><path class="cls-2" d="M75,64.35a14.32,14.32,0,0,1-.61,4.44"/><path class="cls-3" d="M72.13,72.5c-2.59,2.51-7.27,4.09-15.44,4.09-9.81,0-14.62-2.32-16.78-5.81"/><path class="cls-2" d="M39,68.78a14.21,14.21,0,0,1-.63-4.43"/><path class="cls-4" d="M99.32,88.79c.07-1,.12-27.38.12-29.07V55.16c0-23.67-19.15-30.56-42.72-30.56S13.86,31.44,14,55.16v4.56c0,.75.05,29.07.05,29.07s16.05-.11,24.36,0c0-1.51,0-29,0-30.61V56.65c-.14-10.21,8.34-12.07,18.36-12.21,10,.14,18.44,2,18.3,12.21V88.79"/><rect class="cls-4" x="37.19" y="56.69" width="39" height="7.65"/></g></svg>