<svg width="270" height="360" viewBox="0 0 270 360" fill="none" xmlns="http://www.w3.org/2000/svg">
<path d="M132.395 39.9712L132.498 39.4886L132.178 39.1129C127.484 33.6022 124.38 26.9381 124.9 19.5318C125.274 14.2087 127.388 10.6041 130.369 8.2924C133.379 5.95903 137.368 4.8705 141.58 4.79595C145.788 4.72148 150.142 5.66211 153.799 7.29958C157.475 8.94568 160.332 11.2418 161.699 13.7903C164.595 19.1884 165.931 28.9335 165.534 37.6668C165.336 42.0144 164.711 46.0244 163.682 49.0409C163.167 50.5496 162.564 51.7678 161.895 52.6499C161.227 53.531 160.536 54.0221 159.845 54.2001C158.57 54.5289 156.358 54.3121 153.504 53.424C150.699 52.551 147.425 51.0775 144.107 49.0776L142.307 47.9922L142.601 50.074L146.679 78.9232H124.038L132.395 39.9712Z" fill="#B28B67" stroke="white" stroke-width="2"/>
<path d="M151.627 13.9549L151.321 13.9286L151.053 14.0785C147.572 16.026 145.102 19.5601 142.384 23.889C141.791 23.7328 141.17 23.6497 140.53 23.6497C136.522 23.6497 133.272 26.899 133.272 30.9071C133.272 32.6297 133.873 34.2131 134.876 35.4573C133.714 37.0696 132.442 38.7354 131.028 40.444C124.911 36.1672 120.502 25.0705 126.623 14.2483L126.692 14.1272L126.725 13.992C128.084 8.39725 130.991 5.15476 134.646 3.29707C138.355 1.41188 142.924 0.907932 147.645 1.0132C151.297 1.09463 154.945 1.53502 158.28 1.9376C159.259 2.0558 160.211 2.17074 161.129 2.27238C163.129 2.49394 164.977 2.65323 166.535 2.62569C167.461 2.60931 168.352 2.52733 169.138 2.31858C169.451 5.83637 168.614 8.81572 166.364 10.8789C163.816 13.2161 159.213 14.6086 151.627 13.9549Z" fill="#191847" stroke="white" stroke-width="2"/>
<path d="M173.934 299.719L173.923 299.684L173.91 299.65L123.263 171.462H167.578L219.624 408.546H208.046L173.934 299.719Z" fill="#997659" stroke="white" stroke-width="2"/>
<path d="M102.634 280.53C102.766 280.235 102.89 279.716 103.013 279.126C103.145 278.491 103.298 277.651 103.469 276.626C103.812 274.576 104.23 271.76 104.697 268.327C105.631 261.458 106.762 252.097 107.87 241.403C110.053 220.328 112.151 194.05 112.472 171.462H161.145C155.733 190.728 149.772 215.419 144.4 237.667C143.734 240.424 143.077 243.144 142.432 245.811C139.446 258.151 136.7 269.365 134.408 277.989C133.261 282.301 132.23 285.955 131.341 288.773C130.441 291.628 129.715 293.524 129.194 294.4C128.894 294.904 128.113 295.739 126.706 296.937C125.33 298.109 123.442 299.557 121.034 301.283C116.219 304.735 109.374 309.264 100.49 314.875C82.8457 326.02 57.204 341.402 23.5593 361.025L15.5032 352.404C43.8909 329.623 65.324 312.273 79.8004 300.357C87.1092 294.34 92.6495 289.705 96.4178 286.454C98.3009 284.829 99.7491 283.543 100.757 282.6C101.259 282.129 101.662 281.735 101.957 281.421C102.105 281.265 102.234 281.119 102.34 280.988C102.432 280.872 102.553 280.71 102.634 280.53Z" fill="#B28B67" stroke="white" stroke-width="2"/>
<path d="M37.6185 389.318L37.5809 389.186L29.344 360.409C29.3375 360.386 29.3138 360.373 29.291 360.379L37.6185 389.318ZM37.6185 389.318L37.6898 389.434C38.8475 391.321 40.3325 393.659 42.1433 396.445C42.5255 397.033 42.691 397.539 42.7149 397.975C42.7382 398.4 42.631 398.827 42.3486 399.277C41.8126 400.133 40.6566 401.051 38.6947 401.968L38.6239 401.883L38.4856 401.718L38.3475 401.554L38.2097 401.39L38.0721 401.226L37.9348 401.062L37.7978 400.899L37.661 400.736L37.5245 400.573L37.3882 400.411L37.2522 400.249L37.1164 400.087L36.9809 399.925L36.8457 399.764L36.7107 399.603L36.576 399.443L36.4415 399.282L36.3073 399.122L36.1733 398.963L36.0396 398.803L35.9061 398.644L35.7729 398.486L35.64 398.327L35.5073 398.169L35.3749 398.011L35.2427 397.854L35.1108 397.697L34.9791 397.54L34.8477 397.383L34.7166 397.227L34.5857 397.071L34.4551 396.915L34.3247 396.76L34.1946 396.605L34.0647 396.45L33.9351 396.295L33.8058 396.141L33.6767 395.987L33.5478 395.834L33.4193 395.681L33.2909 395.528L33.1629 395.375L33.0351 395.223L32.9075 395.071L32.7802 394.919L32.6532 394.768L32.5264 394.617L32.3998 394.466L32.2736 394.315L32.1475 394.165L32.0218 394.015L31.8963 393.866L31.771 393.716L31.646 393.567L31.5213 393.419L31.3968 393.27L31.2726 393.122L31.1486 392.975L31.0249 392.827L30.9015 392.68L30.7783 392.533L30.6553 392.387L30.5326 392.241L30.4102 392.095L30.2881 391.949L30.1661 391.804L30.0445 391.659L29.9231 391.514L29.8019 391.37L29.681 391.226L29.5604 391.082L29.44 390.938L29.3199 390.795L29.2 390.652L29.0804 390.51L28.9611 390.368L28.842 390.226L28.7231 390.084L28.6046 389.943L28.4862 389.802L28.3682 389.661L28.2504 389.521L28.1328 389.38L28.0155 389.241L27.8984 389.101L27.7817 388.962L27.6651 388.823L27.5489 388.685L27.4328 388.546L27.3171 388.408L27.2016 388.271L27.0863 388.133L26.9713 387.996L26.8566 387.86L26.7421 387.723L26.6279 387.587L26.5139 387.451L26.4002 387.316L26.2867 387.18L26.1735 387.046L26.0606 386.911L25.9479 386.777L25.8355 386.643L25.7233 386.509L25.6114 386.376L25.4997 386.243L25.3883 386.11L25.2772 385.977L25.1663 385.845L25.0557 385.713L24.9453 385.582L24.8352 385.451L24.7253 385.32L24.6157 385.189L24.5063 385.059L24.3972 384.929L24.2884 384.799L24.1798 384.669L24.0715 384.54L23.9634 384.412L23.8556 384.283L23.748 384.155L23.6407 384.027L23.5337 383.899L23.4269 383.772L23.3204 383.645L23.2141 383.519L23.1081 383.392L23.0023 383.266L22.8968 383.14L22.7915 383.015L22.6865 382.89L22.5818 382.765L22.4773 382.641L22.3731 382.516L22.2691 382.392L22.1654 382.269L22.062 382.146L21.9587 382.023L21.8558 381.9L21.7531 381.777L21.6507 381.655L21.5485 381.534L21.4466 381.412L21.3449 381.291L21.2435 381.17L21.1424 381.05L21.0415 380.929L20.9408 380.809L20.8405 380.69L20.7403 380.571L20.6405 380.451L20.5409 380.333L20.4415 380.214L20.3424 380.096L20.2436 379.978L20.145 379.861L20.0466 379.744L19.9486 379.627L19.8508 379.51L19.7532 379.394L19.6559 379.278L19.5588 379.162L19.462 379.047L19.3655 378.932L19.2692 378.817L19.1732 378.703L19.0774 378.589L18.9819 378.475L18.8867 378.361L18.7917 378.248L18.6969 378.135L18.6025 378.023L18.5082 377.91L18.4143 377.798L18.3205 377.687L18.2271 377.575L18.1339 377.464L18.0409 377.353L17.9483 377.243L17.8558 377.133L17.7636 377.023L17.6717 376.913L17.5801 376.804L17.4886 376.695L17.3975 376.587L17.3066 376.478L17.216 376.37L17.1256 376.263L17.0355 376.155L16.9456 376.048L16.856 375.941L16.7666 375.835L16.6775 375.729L16.5887 375.623L16.5001 375.517L16.4117 375.412L16.3237 375.307L16.2359 375.202L16.1483 375.098L16.061 374.994L15.9739 374.89L15.8871 374.787L15.8006 374.684L15.7143 374.581L15.6283 374.478L15.5425 374.376L15.457 374.274L15.3718 374.172L15.2868 374.071L15.202 373.97L15.1175 373.87L15.0333 373.769L14.9493 373.669L14.8656 373.569L14.7822 373.47L14.699 373.371L14.616 373.272L14.5333 373.173L14.4509 373.075L14.3687 372.977L14.2868 372.879L14.2051 372.782L14.1237 372.685L14.0426 372.588L13.9617 372.492L13.881 372.396L13.8006 372.3L13.7205 372.205L13.6406 372.109L13.561 372.015L13.4817 371.92L13.4026 371.826L13.3237 371.732L13.2451 371.638L13.1668 371.545L13.0887 371.452L13.0109 371.359L12.9333 371.266L12.856 371.174L12.779 371.083L12.7022 370.991L12.6256 370.9L12.5494 370.809L12.4733 370.718L12.3976 370.628L12.322 370.538L12.2468 370.448L12.1718 370.359L12.097 370.27L12.0226 370.181L11.9483 370.093L11.8743 370.004L11.8006 369.917L11.7272 369.829L11.654 369.742L11.581 369.655L11.5083 369.568L11.4359 369.482L11.3637 369.396L11.2918 369.31L11.2201 369.225L11.1487 369.14L11.0775 369.055L11.0066 368.97L10.936 368.886L10.8656 368.802L10.7955 368.719L10.7256 368.635L10.656 368.552L10.5866 368.47L10.5175 368.387L10.4487 368.305L10.3801 368.224L10.3118 368.142L10.2437 368.061L10.1759 367.98L10.1083 367.9L10.041 367.82L9.97393 367.74L9.90714 367.66L9.8406 367.581L9.77431 367.502L9.70828 367.423L9.64251 367.345L9.577 367.267L9.51174 367.189L9.44674 367.111L9.38199 367.034L9.3175 366.957L9.25327 366.881L9.18929 366.805L9.12557 366.729L9.06211 366.653L8.9989 366.578L8.93595 366.503L8.87325 366.428L8.81082 366.353L8.74863 366.279L8.68671 366.206L8.62504 366.132L8.56363 366.059L8.50247 365.986L8.44157 365.913L8.38092 365.841L8.32054 365.769L8.26041 365.697L8.20053 365.626L8.14091 365.555L8.08155 365.484L8.02245 365.414L7.9636 365.344L7.905 365.274L7.84667 365.204L7.78859 365.135L7.73076 365.066L7.6732 364.998L7.61588 364.929L7.55883 364.861L7.50203 364.794L7.44549 364.726L7.3892 364.659L7.33317 364.592L7.2774 364.526L7.22188 364.46L7.16662 364.394L7.11162 364.328L7.05687 364.263L7.00238 364.198L6.94815 364.134L6.89417 364.069L6.84045 364.005L6.78698 363.942L6.73377 363.878L6.68082 363.815L6.62812 363.752L6.57568 363.69L6.5235 363.628L6.47157 363.566L6.4199 363.504L6.36849 363.443L6.31733 363.382L6.26643 363.321L6.21578 363.261L6.16539 363.201L6.11526 363.141L6.06538 363.082L6.01576 363.022L5.9664 362.964L5.91729 362.905L5.86844 362.847L5.81984 362.789L5.77151 362.731L5.72342 362.674L5.6756 362.617L5.62803 362.56L5.58072 362.504L5.53366 362.448L5.48686 362.392L5.44032 362.337L5.39403 362.281L5.348 362.227L5.30222 362.172L5.25671 362.118L5.21144 362.064L5.16644 362.01L5.12169 361.957L5.0772 361.904L5.03296 361.851L4.98898 361.799L4.94526 361.747L4.90179 361.695L4.85858 361.643L4.81562 361.592L4.77292 361.541L4.73048 361.491L4.6883 361.44L4.64637 361.39L4.6047 361.341L4.56328 361.291L4.52212 361.242L4.48122 361.194L4.44057 361.145L4.40018 361.097L4.36004 361.049L4.32016 361.002L4.28054 360.954L4.24118 360.908L4.20207 360.861L4.16322 360.815L4.12462 360.769L4.08628 360.723L4.0482 360.678L4.01037 360.633L3.9728 360.588L3.93548 360.543L3.89842 360.499L3.86162 360.455L3.82508 360.412L3.78879 360.368L3.75276 360.325L3.71698 360.283L3.68146 360.241L3.6462 360.198L3.61119 360.157L3.57644 360.115L3.54194 360.074L3.50771 360.033L3.47372 359.993L3.44 359.953L3.40653 359.913L3.37332 359.873L3.34036 359.834L3.30766 359.795L3.27522 359.756L3.24303 359.718L3.2111 359.68L3.17942 359.642L3.14801 359.605L3.11684 359.568L3.08594 359.531L3.05529 359.494L3.0249 359.458L2.99476 359.422L2.96488 359.387L2.93526 359.351L2.90589 359.316L2.87678 359.282L2.84793 359.247L2.81933 359.213L2.79099 359.179L2.7629 359.146L2.73507 359.113L2.7075 359.08L2.68018 359.047L2.65312 359.015L2.62632 358.983L2.59977 358.951L2.57348 358.92L2.54745 358.889L2.52167 358.858L2.49615 358.828L2.47088 358.798L2.44587 358.768L2.42112 358.739L2.39662 358.709L2.37238 358.68L2.3484 358.652L2.32467 358.624L2.3012 358.596L2.27799 358.568L2.25503 358.541L2.23233 358.514L2.20988 358.487L2.1877 358.46L2.16576 358.434L2.14409 358.408L2.12267 358.383L2.1015 358.358L2.0806 358.333L2.05995 358.308L2.03955 358.284L2.01941 358.26L1.99953 358.236L1.97991 358.213L1.96054 358.19L1.94143 358.167L1.92257 358.144L1.91291 358.133C4.00869 355.684 5.68441 353.944 6.9496 352.883C7.98632 352.013 9.99794 351.01 13.1206 349.906L12.792 348.976L13.1206 349.906C13.145 349.898 13.1697 349.89 13.1946 349.883L12.9295 348.919L13.1946 349.883C13.7728 349.724 14.3704 350.064 14.5294 350.642C15.3341 353.569 16.2752 355.784 17.4144 357.141C18.7798 358.768 21.0744 360.284 24.1699 361.727L24.5231 361.891L24.8946 361.773L29.2898 360.38L29.2898 360.38L29.2909 360.379L37.6185 389.318Z" fill="#E4E4E4" stroke="white" stroke-width="2"/>
<path d="M157.027 397.17L116.36 171.462H172.088L219.451 390.395L157.027 397.17Z" fill="#69A1AC" stroke="white" stroke-width="2"/>
<path d="M121.744 325.311C108.929 340.975 91.5752 360.773 69.6779 384.709L28.7078 336.214C50.7095 312.803 67.3777 294.884 78.7102 282.458C84.4281 276.188 88.7923 271.312 91.7993 267.833C93.302 266.094 94.4721 264.697 95.3047 263.646C95.7207 263.121 96.0589 262.674 96.3146 262.309C96.5565 261.963 96.7678 261.631 96.8832 261.355C97.0817 260.881 97.2517 259.981 97.4202 258.818C97.5963 257.603 97.7874 255.963 97.9938 253.903C98.4069 249.783 98.885 243.948 99.4282 236.402C100.503 221.475 101.834 199.827 103.422 171.462H166.376C163.456 203.715 160.356 229.754 157.076 249.589C153.752 269.685 150.261 283.303 146.639 290.571C142.998 297.876 134.727 309.441 121.744 325.311Z" fill="#89C5CC" stroke="white" stroke-width="2"/>
<path d="M216.109 159.463L245.841 188.281L245.975 188.411L246.147 188.483C254.963 192.22 262.157 196.329 267.751 200.798C268.013 201.121 268.257 201.487 268.413 201.827C268.497 202.009 268.544 202.159 268.563 202.273C268.576 202.347 268.575 202.391 268.572 202.412C268.533 202.442 268.429 202.494 268.19 202.534C267.679 202.618 266.783 202.586 265.32 202.266C262.306 201.608 259.141 200.986 256.572 200.78C255.292 200.678 254.1 200.673 253.125 200.843C252.194 201.005 251.197 201.373 250.684 202.256C250.223 203.048 250.259 203.889 250.402 204.59C250.507 205.107 250.7 205.667 250.871 206.163C250.921 206.311 250.97 206.453 251.014 206.586C251.428 207.843 251.56 208.722 250.945 209.53C250.867 209.509 250.727 209.456 250.514 209.327C249.891 208.948 249.007 208.139 247.848 206.804C245.551 204.16 242.413 199.734 238.422 193.487L238.292 193.285L238.084 193.163L207.073 174.997L216.109 159.463ZM268.594 202.388C268.595 202.389 268.591 202.397 268.577 202.408C268.585 202.392 268.592 202.387 268.594 202.388ZM54.3153 194.465C57.4547 179.828 61.6285 158.996 66.8363 131.973L88.3469 132.053C79.521 160.46 72.7494 182.153 68.0319 197.131C63.2317 212.372 60.5771 220.599 60.0407 221.919C58.6422 225.363 59.4574 229.56 60.7636 233.341C61.7312 236.142 63.0385 238.896 64.0988 241.129C64.2971 241.546 64.4868 241.946 64.664 242.324C63.5986 242.606 62.8475 242.428 62.2207 242.083C61.4067 241.636 60.7295 240.88 59.8891 239.943C59.7765 239.818 59.661 239.689 59.5419 239.557C58.5976 238.513 57.4463 237.321 55.8364 236.746C54.173 236.151 52.199 236.268 49.7065 237.42C47.7551 238.322 45.91 239.388 44.1516 240.404C43.9505 240.52 43.7506 240.635 43.5518 240.75C41.5945 241.877 39.7437 242.91 37.871 243.638C36.0094 244.362 34.1612 244.768 32.2236 244.661C30.2911 244.553 28.2052 243.931 25.8731 242.501C25.544 242.299 25.0871 241.707 25.0297 240.964C24.9797 240.318 25.2263 239.399 26.5795 238.477C30.5925 235.743 35.4786 231.993 39.5588 228.531C41.5989 226.801 43.4488 225.133 44.8923 223.693C46.3001 222.289 47.4245 221.004 47.895 220.056C48.4817 218.873 49.2985 216.11 50.3466 211.917C51.407 207.675 52.73 201.856 54.3153 194.465Z" fill="#B28B67" stroke="white" stroke-width="2"/>
<path d="M173.505 148.133C155.888 125.096 139.511 95.071 139.209 65.0372L146.85 63.735C154.563 89.5642 177.149 111.212 198.262 128.722C203.228 132.84 208.089 136.711 212.671 140.36C218.008 144.611 222.967 148.56 227.272 152.246C231.251 155.654 234.605 158.785 237.101 161.649C239.613 164.529 241.176 167.048 241.7 169.229C242.482 172.484 241.708 174.923 240.985 176.93C240.945 177.04 240.905 177.151 240.864 177.262C240.551 178.121 240.226 179.013 240.139 179.811C240.087 180.292 240.11 180.801 240.294 181.303C240.338 181.424 240.39 181.54 240.45 181.653L229.774 189.417C229.132 189.021 228.406 188.918 227.68 188.94C226.979 188.962 226.15 189.109 225.288 189.262C225.002 189.312 224.712 189.364 224.423 189.411C222.011 189.808 218.796 190.119 214.416 188.661C213.961 188.51 213.246 188.146 212.271 187.527C211.312 186.918 210.15 186.095 208.814 185.066C206.144 183.009 202.81 180.156 199.056 176.617C191.547 169.539 182.384 159.743 173.505 148.133Z" fill="#DB2721" stroke="white" stroke-width="2"/>
<path d="M152.943 71.0326L152.945 71.0054L153.734 59.8028L153.745 59.6474C153.781 57.9651 152.49 56.5353 150.795 56.4203L150.793 56.4202L121.342 54.374C121.341 54.374 121.341 54.374 121.341 54.3739C119.594 54.2558 118.079 55.5724 117.952 57.3186L152.943 71.0326ZM152.943 71.0326L152.943 71.0598C152.4 105.556 162.175 127.23 170.942 143.686C171.993 145.658 173.024 147.547 174.019 149.369C177.187 155.171 179.982 160.291 181.84 165.234C184.259 171.668 185.034 177.674 182.903 184.27C181.179 189.607 175.664 195.229 167.907 200.332C160.195 205.405 150.442 209.851 140.525 212.906C130.602 215.964 120.584 217.607 112.338 217.129C104.049 216.649 97.8376 214.053 95.0524 208.951C90.2353 200.127 88.0242 189.404 87.7733 177.663L85.8271 177.361C82.7183 186.473 80.2562 194.327 78.443 200.92C76.9779 206.247 73.4118 209.36 70.0632 211.729C69.48 212.141 68.8845 212.543 68.3047 212.935C67.2733 213.631 66.2914 214.294 65.5169 214.923C64.6504 215.627 63.8372 216.443 63.4492 217.435L49.3904 213.58C49.4694 212.234 49.1704 211.025 48.7089 209.861C48.3691 209.005 47.9033 208.094 47.431 207.172C47.1632 206.648 46.8933 206.121 46.6432 205.597C45.2199 202.617 43.9038 198.786 44.8732 192.401C53.8566 133.243 77.9649 90.4997 117.099 63.9995L117.501 63.7268L117.536 63.2417L117.952 57.3203L152.943 71.0326ZM154.73 59.8692L154.735 59.8695C154.733 59.8694 154.732 59.8693 154.73 59.8692Z" fill="#FF4133" stroke="white" stroke-width="2"/>
</svg>
